<?xml version="1.0"?>
<svg xmlns="http://www.w3.org/2000/svg" id="Solid" viewBox="0 0 512 512" width="512" height="512"><path d="M307.486,184H242.741c1.007.419,2.023.832,3,1.267C272.994,197.319,288,214.135,288,232.617c0,15.891-11.317,30.777-32,42.266V346.53a84.568,84.568,0,0,1,17.89,19.658c1.131,1.722,2.172,3.485,3.17,5.265,18.112,5.94,33.645,19.166,44.342,36.866C310.13,365.782,304,312.555,304,256,304,231.205,305.194,206.984,307.486,184Z"/><path d="M330.487,427.673a111.965,111.965,0,0,1,4.867,19.062A47.028,47.028,0,0,1,328.584,480h18.369a12.848,12.848,0,0,0,9.929-4.743,13.737,13.737,0,0,0,2.851-11.415A49.463,49.463,0,0,0,330.487,427.673Z"/><path d="M64.646,446.736a111.883,111.883,0,0,1,4.867-19.063,49.465,49.465,0,0,0-29.246,36.168,13.738,13.738,0,0,0,2.851,11.416A12.848,12.848,0,0,0,53.047,480H71.416A47.027,47.027,0,0,1,64.646,446.736Z"/><path d="M217.713,345.79a88.1,88.1,0,0,0-35.426,0,66.994,66.994,0,0,0-42.8,29.184,69.688,69.688,0,0,0-9.962,52.964l9.6,45.707A8.037,8.037,0,0,0,146.95,480h106.1a8.037,8.037,0,0,0,7.829-6.355l9.6-45.707a69.688,69.688,0,0,0-9.962-52.964A66.994,66.994,0,0,0,217.713,345.79Z"/><path d="M285.633,393.2a86.14,86.14,0,0,1,.5,38.033l-9.6,45.706a23.579,23.579,0,0,1-.886,3.066h24.988c4.729,0,9.3-2.31,12.859-6.5,5.263-6.195,7.531-15.232,6.067-24.176C315.562,424.869,302.866,404.4,285.633,393.2Z"/><path d="M179.088,330.113a104.007,104.007,0,0,1,41.824,0A82.933,82.933,0,0,1,240,336.494V270.061a8,8,0,0,1,4.415-7.152C262.2,253.993,272,243.235,272,232.617c0-11.593-11.929-23.519-32.727-32.718C216.1,189.646,185.1,184,152,184s-64.095,5.646-87.273,15.9C43.929,209.1,32,221.024,32,232.617c0,10.618,9.8,21.376,27.585,30.292A8,8,0,0,1,64,270.061V412.654a63.07,63.07,0,0,1,14.364-3.941c10.7-17.9,26.33-31.276,44.576-37.26,1-1.78,2.039-3.543,3.17-5.265A82.889,82.889,0,0,1,179.088,330.113ZM90.944,231.438a8,8,0,1,1-5.888-14.876c18.527-7.335,42.3-11.374,66.944-11.374s48.417,4.039,66.944,11.374a8,8,0,1,1-5.888,14.876c-16.7-6.61-38.382-10.25-61.056-10.25S107.643,224.828,90.944,231.438Z"/><path d="M416,32h-1.859c10.781,12.331,20.367,31.659,28.411,57.58C456.383,134.146,464,193.249,464,256s-7.617,121.854-21.448,166.42c-8.044,25.921-17.63,45.249-28.411,57.58H416c14.984,0,31.16-23.3,43.271-62.322C472.639,374.605,480,317.188,480,256s-7.361-118.6-20.729-161.678C447.16,55.3,430.984,32,416,32Z"/><path d="M448,256c0-61.188-7.361-118.6-20.729-161.678C415.16,55.3,398.984,32,384,32s-31.16,23.3-43.271,62.322a393.693,393.693,0,0,0-10.918,45.292c14.528-3.41,40.124-6.019,72.517,4.733l.113.035.089.029v0a8,8,0,1,1-5.058,15.17v0c-35.305-11.768-61.43-5.54-70.549-2.541a669.018,669.018,0,0,0-6.836,87.643c14.229-3.874,40.568-7.519,74.241,3.655l.116.037.088.028v0a8,8,0,1,1-5.058,15.17v0c-34.371-11.457-59.669-5.5-69.448-2.176a677.754,677.754,0,0,0,7.164,94.85c13.94-3.678,40.707-7.346,75.142,4.084l.113.035.089.029v0a8,8,0,1,1-5.058,15.17v0c-32.091-10.7-56.594-6.524-67.641-3.423a401.074,401.074,0,0,0,9.879,42.129,65.552,65.552,0,0,1,35.727,46.471,29.809,29.809,0,0,1-1.249,16.016A18.245,18.245,0,0,0,384,480c14.984,0,31.16-23.3,43.271-62.322C440.639,374.605,448,317.188,448,256Z"/><path d="M113.862,431.228a86.14,86.14,0,0,1,.505-38.033c-17.233,11.2-29.929,31.673-33.932,56.125-1.464,8.944.8,17.982,6.067,24.177,3.563,4.193,8.13,6.5,12.859,6.5h24.988a23.548,23.548,0,0,1-.886-3.067Z"/></svg>
