<svg id="bold" enable-background="new 0 0 24 24" height="512" viewBox="0 0 24 24" width="512" xmlns="http://www.w3.org/2000/svg"><path d="m16.588 5h-1.838c-.414 0-.75-.336-.75-.75v-.838c0-1.881 1.531-3.412 3.412-3.412h1.838c.414 0 .75.336.75.75v.838c0 1.881-1.531 3.412-3.412 3.412z"/><path d="m14.75 12.25c-.414 0-.75-.336-.75-.75v-7c0-.414.336-.75.75-.75s.75.336.75.75v7c0 .414-.336.75-.75.75z"/><path d="m14.75 9h-1.867c-2.417 0-4.383-1.966-4.383-4.383v-.867c0-.414.336-.75.75-.75h1.867c2.417 0 4.383 1.966 4.383 4.383v.867c0 .414-.336.75-.75.75z"/><path d="m.491 12.002c-.272.005-.491.227-.491.5v9.248c0 .138.112.25.25.25h2.372c.224 0 .42-.148.481-.363l2.213-7.798c.143-.504-.127-1.034-.62-1.213-.906-.33-2.296-.656-4.205-.624z"/><path d="m22 17.5c-2 0-6 2.531-8 2.531s-4.25-1.531-4.25-1.531 2.694.5 4.25.5 2-.531 2-1.25c0-1.75-2.972-2.022-4.476-2.251-1.476-.822-2.243-1.472-4.688-1.679-.014.143-.036.285-.076.426l-2.009 7.08c2.275 1.035 6.193 2.674 8.249 2.674 3 0 11-4 11-5s-1-1.5-2-1.5z"/></svg>