<?xml version="1.0"?>
<svg xmlns="http://www.w3.org/2000/svg" viewBox="0 0 512 512" width="512" height="512"><g id="Plant_Lab" data-name="Plant Lab"><g id="Glyph"><path d="M362.065,151.736c-1.782-.476-43.952-11.538-72.783-1.468-10.636,3.714-19,8.385-25.282,13.511V136.474a37.2,37.2,0,0,0,10.549,1.453c28.568,0,55.14-19.908,73.373-41.876A8,8,0,0,0,343.4,83.112c-1.472-.308-36.345-7.447-60.711,1.062A85.185,85.185,0,0,0,264,93.11V79.225c11.085-4.6,16.113-18.858,16-33.147-.155-19.209-16.227-40.59-18.059-42.965a8,8,0,0,0-12.746.1C222.278,39.3,230.738,71.33,248,79.017V94.269a77.4,77.4,0,0,0-21.6-11.111c-24.42-8.528-59.509-.862-60.991-.532a8,8,0,0,0-4.483,12.835c18.064,22.383,44.414,42.4,72.97,42.394a35.3,35.3,0,0,0,14.1-2.728V163.31c-6.2-4.966-14.341-9.47-24.572-13.042-28.831-10.07-71,.992-72.783,1.468a8.005,8.005,0,0,0-4.363,12.492c1.1,1.481,27.213,36.391,56.044,46.46,19.6,6.845,35.15,6.392,45.674,1.768V232H200a8,8,0,0,0-8,8v24a8,8,0,0,0,8,8H312a8,8,0,0,0,8-8V240a8,8,0,0,0-8-8H264V211.959c10.6,4.987,26.467,5.686,46.384-1.271,28.832-10.069,54.946-44.979,56.044-46.46A8,8,0,0,0,362.065,151.736Z"/><path d="M200,455.15c0,30.73,24.4,56.37,55.13,56.84A56.053,56.053,0,0,0,312,456v-8H280a8,8,0,0,1,0-16h32V416H256a8,8,0,0,1,0-16h56V384H280a8,8,0,0,1,0-16h32V352H256a8,8,0,0,1,0-16h56V320H280a8,8,0,0,1,0-16h32V288H200Z"/></g></g></svg>
