<svg id="Layer_1" enable-background="new 0 0 512 512" height="512" viewBox="0 0 512 512" width="512" xmlns="http://www.w3.org/2000/svg"><g><path d="m356.459 21.481-174.285-10.151c-99.23 31.321-171.176 124.09-171.176 233.672 0 135.311 109.691 245.002 245.002 245.002s245.002-109.691 245.002-245.002c0-99.511-59.329-185.162-144.543-223.521z" fill="#5c45bf"/><path d="m87.891 333.738c-38.192-28.543-60.3-75.632-21.641-114.291 39.002-39.001 63.598-90.663 69.587-142.944 2.096-18.3-3.153-30.461-10.857-38.547-68.505 43.438-113.982 119.927-113.982 207.046 0 71.17 30.356 135.24 78.814 180.001 31.249-22.08 28.439-68.576-1.921-91.265z" fill="#7255ce"/><path d="m417.15 60.469c-15.129 12.181-28.522 31.096-25.067 59.086 7.333 59.392 40.291 131.392 46.813 184.726 3.858 31.556 15.645 49.484 32.377 57.788 18.955-34.783 29.729-74.666 29.729-117.067 0-73.606-32.466-139.623-83.852-184.533z" fill="#7255ce"/><path d="m96.695 431.131c42.835 36.697 98.477 58.873 159.305 58.873 45.772 0 88.603-12.565 125.257-34.414-9.643-19.013-82.705-33.794-171.421-33.794-43.293 0-82.855 3.521-113.141 9.335z" fill="#4b3aaf"/><path d="m420.222 431.723-12.853-102.711v80.44c0 20.598-14.42 38.646-34.651 42.514-7.473 1.428-16.237 1.43-23.719 0-20.232-3.868-34.651-21.916-34.651-42.514 0-12.589 0-88.426 0-99.963-9.618 13.996-10.568 23.905-11.771 38.398l-5.614 79.739c-.478 6.791-.394 13.619.437 20.376 5.046 41.014 31.373 56.113 48.493 61.629 9.495 3.059 19.733 3.18 29.258.214 13.734-4.277 31.883-14.735 41.064-40.125 4.387-12.136 5.609-25.191 4.007-37.997z" fill="#e9efff"/><path d="m415.513 471.566c-25.946-1.06-20.141-30.295-20.141-30.295l-.464-1.246c-5.867 5.985-13.489 10.277-22.191 11.941-7.473 1.428-16.237 1.43-23.719 0-20.232-3.868-34.651-21.916-34.651-42.514 0-12.589 0-88.426 0-99.963-9.618 13.996-10.568 23.905-11.772 38.398l-5.614 79.739c-.478 6.791-.394 13.619.437 20.376 5.046 41.014 31.373 56.113 48.493 61.629 9.495 3.059 19.733 3.18 29.258.214 13.396-4.171 30.986-14.229 40.364-38.279z" fill="#d3dcfb"/><g><path d="m314.347 411.175c0 20.598 14.42 38.646 34.651 42.514 7.482 1.43 16.247 1.428 23.719 0 20.232-3.868 34.651-21.916 34.651-42.514v-20.091c0 20.598-14.42 38.646-34.651 42.514-7.473 1.428-16.237 1.43-23.719 0-20.232-3.868-34.651-21.916-34.651-42.514z" fill="#f9c5e7"/></g><path d="m375.793 432.879c-1.01.273-2.033.519-3.075.718-7.473 1.428-16.237 1.43-23.719 0-20.232-3.868-34.651-21.916-34.651-42.514v20.091c0 20.598 14.42 38.646 34.651 42.514 7.483 1.43 16.247 1.428 23.719 0 8.932-1.708 16.729-6.182 22.654-12.417-8.238-1.358-14.628-4.243-19.579-8.392z" fill="#fcb1df"/><path d="m228.817 402.512-13.576-17.553c-44.699 3.446-38.421-59.007-49.721-99.14-8.528-30.289-20.304-54.446-25.786-64.849l-3.898-3.827s-25.555 9.172-43.713 32.083c-11.571 14.599-8.731 35.965 6.192 47.114 15.98 11.938 35.722 31.728 41.506 59.387 10.184 48.704-2.509 94.606 88.995 94.606h11.253c16.052 0 24.792-18.822 14.372-31.032-6.225-7.296-14.587-13.815-25.624-16.789z" fill="#e9efff"/><path d="m174.25 363.614 4.698-8.089c-6.38-20.7-7.418-48.359-13.428-69.705-8.528-30.289-20.304-54.446-25.786-64.849l-3.898-3.827s-25.555 9.172-43.713 32.083c-11.571 14.599-8.731 35.965 6.192 47.114 15.98 11.938 35.722 31.728 41.506 59.387 1.906 9.116 3.011 18.134 4.147 26.771 7.053-26.118 30.282-18.885 30.282-18.885z" fill="#d3dcfb"/><path d="m215.146 384.837c-30.553 2.828-37.723-24.57-42.563-55.105l-.347-.45s-12.786 88.874 56.58 73.23l-12.397-16.027z" fill="#f9c5e7"/><path d="m256 0c-25.729 0-50.527 3.976-73.826 11.33-2.65 23.111-4.718 51.234-4.718 82.725 0 16.69-1.511 31.482-3.954 44.501l1.284.171c3.099-.786 6.359-.569 9.266.627 2.324.955 4.299 2.416 5.868 4.34.649.797 1.619 1.293 2.659 1.361 1.05.077 2.07-.296 2.82-1.001 4.678-4.397 11.608-5.296 17.247-2.24 3.089 1.676 5.489 4.407 6.755 7.69.41 1.064 1.258 1.883 2.327 2.248 1.055.361 2.211.235 3.17-.346 5.519-3.339 12.38-2.746 17.226 1.297l1.255.301c2.706-13.1 6.327-26.192 11.119-38.584 13.24-34.242 22.864-78.259 29.082-112.868-9.056-1.013-18.254-1.552-27.58-1.552z" fill="#f9ba8f"/><path d="m255.226 112.505c3.563-9.404 6.859-19.5 9.892-29.911l4.226-82.221c-4.418-.242-8.865-.373-13.344-.373-25.729 0-50.527 3.976-73.826 11.33-2.65 23.111-4.718 51.234-4.718 82.725 0 16.69-1.511 31.482-3.954 44.501l1.284.171c3.099-.786 6.359-.569 9.266.627 2.324.955 4.299 2.416 5.868 4.34.649.797 1.619 1.293 2.659 1.361 1.05.077 2.07-.296 2.82-1.001 3.779-3.552 9.027-4.818 13.877-3.564 8.523-34.051 33.032-31.829 45.95-27.985z" fill="#fcad6d"/><path d="m236.153.803c9.31 83.579 36.528 163.911 54.974 216.538l1.183-.531c2.191-4.772 6.703-8.054 11.886-8.609 2.5-.267 4.935.074 7.229 1.018.951.39 2.041.363 2.988-.072.949-.436 1.678-1.247 2.001-2.226 2.015-6.095 7.678-10.189 14.093-10.189 3.515 0 6.927 1.257 9.604 3.539.868.74 2.003 1.056 3.118.868 1.1-.186 2.055-.848 2.622-1.816 2.907-4.968 8.28-7.774 14.04-7.314 2.108.168 4.199.821 6.081 1.895l1.264-.249c-5.086-23.256-7.528-48.012-7.528-71.933 0-38.279-1.437-72.406-3.25-100.242-30.655-13.798-64.659-21.48-100.458-21.48-6.683 0-13.3.278-19.847.803z" fill="#fcceae"/><path d="m338.941 14.401c-25.903-9.32-53.828-14.401-82.941-14.401-6.683 0-13.3.278-19.847.803 9.31 83.579 36.528 163.911 54.974 216.538l1.183-.531c2.191-4.772 6.703-8.054 11.886-8.609 2.5-.267 4.935.074 7.229 1.018.951.39 2.041.363 2.988-.072.949-.436 1.678-1.247 2.001-2.226 2.015-6.095 7.678-10.189 14.093-10.189.709 0 1.412.065 2.108.165-8.268-36.657-16.884-73.225-23.199-103.284-9.79-46.6 10.837-68.812 29.525-79.212z" fill="#f9ba8f"/><path d="m384.065 244.232c-7.36-15.367-12.974-32.799-16.949-51.149-2.113-1.309-4.535-2.154-7.121-2.36-6.492-.516-12.251 2.812-15.258 7.949-.792 1.353-2.592 1.634-3.786.617-2.814-2.397-6.455-3.848-10.442-3.848-7.146 0-13.194 4.644-15.32 11.077-.442 1.338-1.968 2.042-3.272 1.507-2.386-.98-5.055-1.407-7.858-1.107-5.904.633-10.906 4.541-13.136 9.84 10.53 30.053 18.256 51.182 18.256 58.855 0 24.117 5.168 33.878 5.168 33.878v1.723 81.594c0 20.598 14.42 38.646 34.651 42.514 7.482 1.43 16.247 1.428 23.719 0 20.232-3.868 34.651-21.916 34.651-42.514v-62.071-1.723l-10.942-49.414c-2.71-12.236-6.947-24.065-12.361-35.368z" fill="#f9c5e7"/><path d="m358.783 349.614c0-32.538-12.803-93.529-26.47-154.061-.593-.066-1.193-.112-1.804-.112-7.146 0-13.194 4.644-15.32 11.077-.442 1.338-1.968 2.042-3.272 1.507-2.386-.98-5.055-1.407-7.858-1.107-5.904.633-10.906 4.541-13.136 9.84 10.53 30.053 18.256 51.182 18.256 58.855 0 24.117 5.168 33.878 5.168 33.878v1.723 81.594c0 20.598 14.42 38.646 34.651 42.514 7.483 1.43 16.247 1.428 23.719 0 1.597-.305 3.154-.709 4.674-1.185-19.797-14.628-18.608-47.55-18.608-84.523z" fill="#fcb1df"/><path d="m384.065 244.232c-4.054-8.465-7.56-17.573-10.573-27.099-2.027-1.184-4.32-1.947-6.759-2.141-6.492-.516-12.251 2.812-15.258 7.949-.792 1.353-2.592 1.634-3.786.617-2.814-2.397-6.455-3.848-10.442-3.848-7.145 0-13.194 4.644-15.32 11.077-.442 1.338-1.968 2.042-3.271 1.507-2.386-.98-5.055-1.407-7.858-1.107-5.106.547-9.543 3.541-12.093 7.766 6.339 18.233 10.474 31.048 10.474 36.659 0 24.117 5.168 33.878 5.168 33.878v1.723 81.594c0 20.598 14.42 38.646 34.651 42.514 7.482 1.43 16.247 1.428 23.719 0 20.232-3.868 34.651-21.916 34.651-42.514v-62.071-1.723l-10.942-49.413c-2.71-12.236-6.947-24.065-12.361-35.368z" fill="#fcb1df"/><path d="m358.783 349.614c0-28.198-9.616-77.766-21.076-129.884-.154-.004-.305-.021-.46-.021-7.145 0-13.194 4.644-15.32 11.077-.442 1.338-1.968 2.042-3.271 1.507-2.386-.98-5.055-1.407-7.858-1.107-5.106.547-9.543 3.541-12.093 7.766 6.339 18.233 10.474 31.048 10.474 36.659 0 24.117 5.168 33.878 5.168 33.878v1.723 81.594c0 20.598 14.42 38.646 34.651 42.514 7.483 1.43 16.247 1.428 23.719 0 1.597-.305 3.154-.709 4.674-1.185-19.797-14.626-18.608-47.548-18.608-84.521z" fill="#fc90ce"/><path d="m238.077 283.967c.594-8.706.325-17.447-.597-26.125-1.989-18.719-3.007-62.28 6.062-105.611-.649-.599-1.353-1.149-2.11-1.642-5.461-3.549-12.11-3.369-17.202-.288-1.342.812-3.058.201-3.622-1.262-1.33-3.449-3.84-6.46-7.345-8.361-6.281-3.407-13.812-2.207-18.748 2.434-1.027.965-2.703.857-3.593-.235-1.63-1.998-3.772-3.646-6.378-4.719-3.533-1.454-7.385-1.536-10.88-.457-10.265 55.981-37.826 79.441-37.826 79.441s17.353 29.665 28.822 70.399 4.828 104.464 51.761 98.943c-.002.001 17.852-46.808 21.656-102.517z" fill="#f9c5e7"/><path d="m209.6 139.236c-5.368-1.388-11.081.111-15.086 3.877-1.027.965-2.703.857-3.593-.235-1.63-1.998-3.772-3.646-6.378-4.719-3.533-1.454-7.385-1.536-10.88-.457-10.265 55.981-37.826 79.441-37.826 79.441s17.353 29.665 28.822 70.399c.164.58.322 1.166.479 1.756 14.305-33.971 37.207-93.458 41.946-136.292.571-5.168 1.429-9.73 2.516-13.77z" fill="#fcb1df"/><path d="m216.419 386.485s17.854-46.81 21.657-102.519c.594-8.706.325-17.447-.597-26.125-1.598-15.04-2.564-46.12 1.82-80.23-.719-.695-1.501-1.334-2.361-1.893-5.461-3.549-12.11-3.369-17.202-.287-1.342.812-3.058.201-3.622-1.262-1.33-3.449-3.84-6.46-7.344-8.361-6.281-3.407-13.812-2.207-18.748 2.434-1.027.965-2.703.857-3.593-.235-1.63-1.998-3.772-3.646-6.378-4.719-4.255-1.751-8.972-1.514-12.969.35-12.327 37.373-31.244 53.505-31.244 53.505s17.353 29.665 28.822 70.399c11.468 40.734 4.827 104.464 51.759 98.943z" fill="#fcb1df"/><path d="m190.021 168.242c-1.027.965-2.703.857-3.593-.235-1.63-1.998-3.772-3.646-6.378-4.719-4.255-1.751-8.972-1.514-12.969.35-12.326 37.373-31.244 53.505-31.244 53.505s17.353 29.665 28.822 70.399c.164.58.322 1.166.479 1.756 13.068-31.033 33.305-83.354 40.321-124.827-5.47-1.549-11.345-.077-15.438 3.771z" fill="#fc90ce"/><path d="m390.185 210.992c4.613 7.989 16.025 8.319 21.091.609l6.008-9.144c-2.015-.789-3.789-2.235-4.953-4.251s-1.529-4.275-1.205-6.415l-10.923.631c-9.21.532-14.631 10.58-10.018 18.57z" fill="#ffdd40"/><path d="m430.516 174.921-6.008 9.144c2.015.79 3.789 2.235 4.953 4.251s1.529 4.275 1.205 6.415l10.922-.631c9.21-.532 14.631-10.58 10.018-18.57-4.611-7.99-16.024-8.319-21.09-.609z" fill="#fcf5e0"/><path d="m425.841 201.826c-3.618 2.089-8.016 1.617-11.104-.837l-4.914 9.773c-4.144 8.242 1.847 17.961 11.073 17.961 9.225 0 15.217-9.719 11.073-17.961l-4.916-9.776c-.38.303-.778.59-1.212.84z" fill="#fee884"/><path d="m409.823 175.759 4.915 9.776c.38-.303.778-.59 1.212-.84 3.618-2.089 8.016-1.617 11.104.838l4.914-9.773c4.144-8.242-1.848-17.961-11.073-17.961-9.224-.001-15.216 9.718-11.072 17.96z" fill="#fcf2c8"/><path d="m425.841 201.826c-.434.25-.881.452-1.333.63l6.008 9.145c5.066 7.71 16.479 7.38 21.091-.609s-.809-18.038-10.018-18.57l-10.921-.631c.582 3.902-1.209 7.947-4.827 10.035z" fill="#fcf2c8"/><path d="m390.185 175.529c-4.613 7.99.809 18.038 10.018 18.57l10.921.631c-.582-3.902 1.209-7.946 4.827-10.035.434-.25.881-.451 1.333-.629l-6.008-9.145c-5.066-7.71-16.479-7.381-21.091.608z" fill="#fee884"/><path d="m411.703 187.953c2.931-5.077 9.423-6.816 14.5-3.885s6.816 9.423 3.885 14.5-9.423 6.816-14.5 3.885c-5.076-2.931-6.816-9.423-3.885-14.5z" fill="#ffb332"/><path d="m60.963 153.669c6.181 10.706 21.475 11.148 28.264.816l8.051-12.253c-2.701-1.058-5.078-2.995-6.638-5.697-1.56-2.701-2.049-5.729-1.614-8.597l-14.637.846c-12.343.713-19.608 14.179-13.426 24.885z" fill="#ffdd40"/><path d="m115.01 105.331-8.051 12.253c2.701 1.058 5.078 2.995 6.638 5.697 1.56 2.701 2.049 5.729 1.615 8.596l14.637-.846c12.342-.713 19.606-14.179 13.425-24.885-6.182-10.706-21.475-11.147-28.264-.815z" fill="#fcf5e0"/><path d="m108.745 141.387c-4.848 2.799-10.742 2.167-14.88-1.122l-6.585 13.097c-5.553 11.045 2.476 24.069 14.839 24.069s20.391-13.024 14.838-24.069l-6.587-13.1c-.51.405-1.044.789-1.625 1.125z" fill="#fee884"/><path d="m87.28 106.455 6.587 13.1c.51-.406 1.043-.79 1.624-1.126 4.848-2.799 10.742-2.167 14.881 1.122l6.585-13.097c5.553-11.045-2.476-24.069-14.838-24.069-12.363.001-20.392 13.025-14.839 24.07z" fill="#fcf2c8"/><path d="m108.745 141.387c-.581.335-1.181.605-1.787.844l8.051 12.255c6.789 10.332 22.082 9.89 28.264-.816 6.181-10.706-1.084-24.172-13.425-24.885l-14.635-.846c.78 5.228-1.619 10.648-6.468 13.448z" fill="#fcf2c8"/><path d="m60.963 106.147c-6.181 10.707 1.083 24.172 13.425 24.885l14.635.846c-.779-5.229 1.62-10.649 6.468-13.448.581-.335 1.181-.605 1.787-.844l-8.051-12.255c-6.789-10.332-22.083-9.891-28.264.816z" fill="#fee884"/><path d="m89.799 122.796c3.928-6.803 12.627-9.134 19.431-5.206 6.803 3.928 9.134 12.627 5.206 19.431-3.928 6.803-12.627 9.134-19.431 5.206-6.802-3.928-9.134-12.628-5.206-19.431z" fill="#ffb332"/></g></svg>