<svg id="Capa_1" enable-background="new 0 0 512 512" height="512" viewBox="0 0 512 512" width="512" xmlns="http://www.w3.org/2000/svg"><g><path d="m319.001 150.498h-126.002c-23.435 0-42.501 19.066-42.501 42.501v17.875h90.502v-26.126c0-8.284 6.716-15 15-15s15 6.716 15 15v26.126h90.502v-17.875c0-23.435-19.066-42.501-42.501-42.501z"/><path d="m494.374 78.432c-12.602-13.696-30.504-21.551-49.115-21.551h-378.518c-18.612 0-36.513 7.856-49.115 21.551s-18.943 32.188-17.397 50.734l22.063 264.753c1.394 16.731 8.965 32.205 21.32 43.573 12.355 11.367 28.404 17.627 45.192 17.627h334.392c16.788 0 32.838-6.26 45.192-17.627 12.355-11.368 19.926-26.842 21.32-43.572l22.063-264.754c1.546-18.546-4.795-37.039-17.397-50.734zm-102.871 147.442c0 8.284-6.716 15-15 15h-241.006c-8.284 0-15-6.716-15-15v-32.876c0-39.977 32.524-72.502 72.502-72.502h126.003c39.977 0 72.502 32.524 72.502 72.502v32.876z"/></g></svg>